<?xml version="1.0" encoding="utf-8"?>
<!-- Generator: Adobe Illustrator 15.0.0, SVG Export Plug-In . SVG Version: 6.00 Build 0)  -->

<svg version="1.1" id="Layer_1" xmlns="http://www.w3.org/2000/svg" xmlns:xlink="http://www.w3.org/1999/xlink" x="0px" y="0px"
	 width="24px" height="24px" viewBox="0 0 24 24" enable-background="new 0 0 24 24" xml:space="preserve">
<rect y="2" fill="#FFFFFF" width="24" height="16"/>
<g>
	<g>
		<path fill="#2980B9" d="M0,0v19h24V0H0z M23,18H1V3h22V18z"/>
	</g>
	<rect x="10.6" y="17.7" fill="#FFFFFF" width="12.4" height="1.3"/>
</g>
<rect x="3" y="4.1" fill="#E67E22" width="4.8" height="3.9"/>
<rect x="19.2" y="1" fill="#FFFFFF" width="0.8" height="0.8"/>
<rect x="21" y="1" fill="#FFFFFF" width="0.8" height="0.8"/>
<rect x="9.2" y="5" fill="#BDC3C7" width="10.8" height="1.9"/>
<rect x="3" y="11.1" fill="#BDC3C7" width="1.8" height="1.9"/>
<rect x="3.1" y="14" fill="#BDC3C7" width="1.8" height="1.9"/>
<rect x="3.2" y="9" fill="#BDC3C7" width="7.8" height="0.9"/>
<rect x="5.8" y="12" fill="#BDC3C7" width="5.1" height="0.9"/>
<rect x="5.9" y="15" fill="#BDC3C7" width="5.1" height="0.9"/>
<g>
	<g>
		<g>
			<path fill="#C0392B" d="M23.3,19.4c-0.7-1.1-1.9-2-3.5-2.4c-1,1.3-2,1.5-2.6,1.5c-0.6,0-1.6-0.2-2.6-1.5
				c-1.6,0.5-2.8,1.4-3.5,2.5c-0.5,0.4-0.9,1.4-0.6,1.8c0.1,0.1,0.1,0.2,0.2,0.3c0,0.1,0,0.2,0.1,0.4c0.7,1.1,2.8,1.9,5.3,2.1l2.3,0
				c2.7-0.2,4.8-1.1,5.4-2.2c0,0,0-0.1,0-0.1c0,0,0-0.1,0.1-0.1C24.2,21,23.9,19.9,23.3,19.4z"/>
		</g>
	</g>
	<g>
		<path fill="#E5B451" d="M20.7,12.7c0,2.2-1.8,4.8-3.5,4.8c-1.7,0-3.5-2.6-3.5-4.8c0-2.2,1.8-3.6,3.5-3.6
			C18.9,9.1,20.7,10.5,20.7,12.7z"/>
		<g>
			<polygon fill-rule="evenodd" clip-rule="evenodd" fill="#2C3E50" points="17.5,13.1 12.1,10.7 17.1,8 22.4,10.4 			"/>
			<polygon fill-rule="evenodd" clip-rule="evenodd" fill="#C0392B" points="13.6,15.5 12.6,15.5 13.1,10.8 13.4,10.8 			"/>
		</g>
	</g>
</g>
</svg>
