<?xml version="1.0" encoding="utf-8"?>
<!-- Generator: Adobe Illustrator 15.0.0, SVG Export Plug-In . SVG Version: 6.00 Build 0)  -->

<svg version="1.1" id="Layer_1" xmlns="http://www.w3.org/2000/svg" xmlns:xlink="http://www.w3.org/1999/xlink" x="0px" y="0px"
	 width="24px" height="24px" viewBox="0 0 24 24" enable-background="new 0 0 24 24" xml:space="preserve">
<g>
	<path fill="#AD7F34" d="M19,20.8c0,0.7-0.5,1.2-1.2,1.2H2.2C1.5,22,1,21.5,1,20.8V3.3c0-0.7,0.5-1.2,1.2-1.2h15.6
		c0.7,0,1.2,0.5,1.2,1.2V20.8z"/>
	<polygon fill="#FFFFFF" points="18,21 2.2,21 2.2,3.1 18,3.1 	"/>
	<path fill-rule="evenodd" clip-rule="evenodd" fill="#5C5C5C" d="M8.3,1.9c0,0-0.2-1.9,1.8-1.9c2,0,1.9,2,1.9,2l1,0.9
		c0,0,0.8,0.3,0.9,1.1C14,5.2,16,4.4,16,5c0,0.9,0,1,0,1H4c0,0,0-0.4,0-1c0-0.8,2.2-0.3,2.3-1C6.4,3.3,6.5,3.2,7,2.9
		C7.5,2.6,8.3,1.9,8.3,1.9z"/>
	<path fill-rule="evenodd" clip-rule="evenodd" fill="#FFFFFF" d="M10.2,1C10.6,1,11,1.4,11,1.8s-0.4,0.8-0.8,0.8
		c-0.4,0-0.8-0.4-0.8-0.8S9.8,1,10.2,1z"/>
	<g>
		<path fill-rule="evenodd" clip-rule="evenodd" fill="#2980B9" d="M4.1,11l7.9,0v1H4.1V11z"/>
		<path fill-rule="evenodd" clip-rule="evenodd" fill="#2980B9" d="M4,8l11.9,0v1H4V8z"/>
		<path fill-rule="evenodd" clip-rule="evenodd" fill="#2980B9" d="M4,14h5v1H4V14z"/>
	</g>
</g>
<g>
	<circle fill="#54890A" cx="15.5" cy="17.5" r="6.5"/>
	<polygon fill="#FFFFFF" points="20.6,14.7 19.4,13.5 13.9,19 11.5,16.5 10.3,17.8 13.9,21.4 	"/>
</g>
</svg>
