<?xml version="1.0" encoding="utf-8"?>
<!-- Generator: Adobe Illustrator 20.0.0, SVG Export Plug-In . SVG Version: 6.00 Build 0)  -->
<svg xmlns="http://www.w3.org/2000/svg" width="24px" height="24px" viewBox="0 0 24 24" style="enable-background:new 0 0 24 24;" xml:space="preserve">
<style type="text/css">
	.st0{fill:#FFFFFF;}
	.st1{fill:#2980B9;}
	.st2{fill:#47ABE2;}
	.st3{fill:#223447;}
	.st4{fill:#DDDCDC;}
	.st5{fill:#233447;}
</style>
<rect x="1" y="5" class="st0" width="23" height="19"/>
<path class="st1" d="M20,3v1h-0.8H19V1h-3v3h-1V3H9v1H8.2H8V1H5v3H4V3H0v21h24V3H20z M23,23H1V6h22V23z"/>
<g>
	<rect x="4" y="9.1" class="st2" width="3.8" height="3.9"/>
	<rect x="10.2" y="9" class="st2" width="3.8" height="3.9"/>
	<rect x="16.2" y="9" class="st2" width="3.8" height="3.9"/>
	<rect x="4" y="16.1" class="st2" width="3.8" height="3.9"/>
	<rect x="10.2" y="16" class="st2" width="3.8" height="3.9"/>
	<rect x="16.2" y="16" class="st2" width="3.8" height="3.9"/>
</g>
<g>
	<g>
		<path class="st3" d="M9,16.5C9,12.4,12.3,9,16.5,9s7.5,3.3,7.5,7.5S20.6,24,16.4,24S9,20.7,9,16.5z"/>
		<circle class="st0" cx="16.4" cy="16.5" r="6.1"/>
		<path class="st4" d="M16,11c3.4,0,6.1,2.7,6.1,6.1c0,1.4-0.5,2.6-1.2,3.7c1-1.1,1.6-2.6,1.6-4.2c0-3.4-2.7-6.1-6.1-6.1
			c-2,0-3.8,1-4.9,2.5C12.6,11.7,14.2,11,16,11z"/>
		<g>
			<path class="st5" d="M16.4,16.1c0.1,0.1,0.1,0.4,0,0.5l0,0c-0.1,0.1-0.4,0.2-0.5,0l-2.5-2.5c-0.1-0.1-0.1-0.4,0-0.5l0,0
				c0.1-0.1,0.4-0.2,0.5,0L16.4,16.1z"/>
			<path class="st5" d="M19.7,12.9c0.2-0.2,0.4-0.2,0.6,0l0,0c0.1,0.1,0.1,0.4,0,0.6L17,16.8c-0.2,0.2-0.4,0.2-0.6,0l0,0
				c-0.1-0.1-0.1-0.4,0-0.6L19.7,12.9z"/>
			<circle class="st5" cx="16.4" cy="16.5" r="0.9"/>
		</g>
	</g>
	<rect x="16.1" y="21.4" class="st5" width="0.7" height="1.1"/>
	<rect x="16.1" y="10.4" class="st5" width="0.7" height="1.1"/>
	<rect x="21.4" y="16.1" class="st5" width="1.1" height="0.7"/>
	<rect x="10.4" y="16.1" class="st5" width="1.1" height="0.7"/>
</g>
</svg>
