<?xml version="1.0" encoding="utf-8"?>
<!-- Generator: Adobe Illustrator 15.0.0, SVG Export Plug-In . SVG Version: 6.00 Build 0)  -->

<svg version="1.1" id="Layer_1" xmlns="http://www.w3.org/2000/svg" xmlns:xlink="http://www.w3.org/1999/xlink" x="0px" y="0px"
	 width="24px" height="24px" viewBox="0 0 24 24" enable-background="new 0 0 24 24" xml:space="preserve">
<g>
	<g>
		<g>
			<g>
				<path fill="#FFFFFF" d="M2.6,21.8c-1.1,0-1.5-0.4-1.5-1.5V4.2l3.8-4h11.9c1.1,0,1.5,0.4,1.5,1.5v18.7c0,1.1-0.4,1.5-1.5,1.5H2.6
					z"/>
				<path fill="#7F8C8D" d="M16.9,0.3c1,0,1.3,0.3,1.3,1.3v18.7c0,1-0.3,1.3-1.3,1.3H2.6c-1,0-1.3-0.3-1.3-1.3V4.2l3.8-3.9H16.9
					 M16.9,0h-12L1,4.1v16.2C1,21.6,1.5,22,2.6,22h14.3c1.2,0,1.6-0.5,1.6-1.6V1.6C18.5,0.4,18.1,0,16.9,0L16.9,0z"/>
			</g>
		</g>
		<polygon fill="#3498DB" points="4.9,4 1,4 4.9,0 		"/>
		<polygon fill="#BDC3C7" points="4.9,0 8.9,0 5,4.1 		"/>
	</g>
	<rect x="5" fill="#7F8C8D" width="13" height="1"/>
	<rect x="1" y="21" fill="#7F8C8D" width="8" height="1"/>
	<rect x="1" y="4" fill="#7F8C8D" width="1" height="17"/>
</g>
<g>
	<path fill-rule="evenodd" clip-rule="evenodd" fill="#2980B9" d="M7.1,9L16,9v1H7.1V9z"/>
	<path fill-rule="evenodd" clip-rule="evenodd" fill="#2980B9" d="M7,6l8.9,0v1H7V6z"/>
	<path fill-rule="evenodd" clip-rule="evenodd" fill="#2980B9" d="M7,12h4v1H7V12z"/>
	<path fill-rule="evenodd" clip-rule="evenodd" fill="#2980B9" d="M7,15h2v1H7V15z"/>
	<path fill-rule="evenodd" clip-rule="evenodd" fill="#E74C3C" d="M4,12h2v2H4V12z"/>
	<path fill-rule="evenodd" clip-rule="evenodd" fill="#54890A" d="M4,15h2v2H4V15z"/>
	<path fill-rule="evenodd" clip-rule="evenodd" fill="#54890A" d="M4,6h2v2H4V6z"/>
	<path fill-rule="evenodd" clip-rule="evenodd" fill="#54890A" d="M4,9h2v2H4V9z"/>
</g>
<g>
	<rect x="10" y="14" fill="#FFFFFF" width="11" height="9"/>
	<g>
		<g>
			<rect x="10" y="14" fill="#2980B9" width="12" height="1"/>
			<rect x="21" y="14" fill="#2980B9" width="1" height="10"/>
			<rect x="10" y="23" fill="#2980B9" width="11" height="1"/>
			<rect x="10" y="14" fill="#2980B9" width="1" height="9"/>
			<rect x="12" y="13" fill="#2980B9" width="2" height="1"/>
			<rect x="18" y="13" fill="#2980B9" width="2" height="1"/>
		</g>
		<rect x="12" y="16" fill="#47ABE2" width="2" height="2"/>
		<rect x="15" y="16" fill="#47ABE2" width="2" height="2"/>
		<rect x="18" y="16" fill="#47ABE2" width="2" height="2"/>
		<rect x="12" y="19" fill="#47ABE2" width="2" height="2"/>
		<rect x="15" y="19" fill="#47ABE2" width="2" height="2"/>
		<rect x="18" y="19" fill="#47ABE2" width="2" height="2"/>
	</g>
</g>
</svg>
